Coordinates
version=1
nRows=6
nColumns=63
inDegrees=yes

Units are S.I. units (second, meters, Newtons, ...)
If the header above contains a line with 'inDegrees', this indicates whether rotational values are in degrees (yes) or radians (no).

endheader
time	pelvis_tilt	pelvis_list	pelvis_rotation	pelvis_tx	pelvis_ty	pelvis_tz	hip_flexion_r	hip_adduction_r	hip_rotation_r	knee_angle_r	knee_angle_r_beta	ankle_angle_r	subtalar_angle_r	mtp_angle_r	hip_flexion_l	hip_adduction_l	hip_rotation_l	knee_angle_l	knee_angle_l_beta	ankle_angle_l	subtalar_angle_l	mtp_angle_l	L5_S1_Flex_Ext	L5_S1_Lat_Bending	L5_S1_axial_rotation	L4_L5_Flex_Ext	L4_L5_Lat_Bending	L4_L5_axial_rotation	L3_L4_Flex_Ext	L3_L4_Lat_Bending	L3_L4_axial_rotation	L2_L3_Flex_Ext	L2_L3_Lat_Bending	L2_L3_axial_rotation	L1_L2_Flex_Ext	L1_L2_Lat_Bending	L1_L2_axial_rotation	L1_T12_Flex_Ext	L1_T12_Lat_Bending	L1_T12_axial_rotation	Abs_r3	Abs_r2	Abs_r1	Abs_t1	Abs_t2	neck_flexion	neck_bending	neck_rotation	arm_flex_r	arm_add_r	arm_rot_r	elbow_flex_r	pro_sup_r	wrist_flex_r	wrist_dev_r	arm_flex_l	arm_add_l	arm_rot_l	elbow_flex_l	pro_sup_l	wrist_flex_l	wrist_dev_l
     10.35593220	      0.88969623	     -3.25651552	     93.15854069	      0.23053275	      1.04274624	      0.07665898	     -7.89534845	     -0.21418659	     -9.61495417	      5.65467046	      0.09869262	     22.26437263	     13.68984952	      0.00000000	     -7.28615388	      1.76140941	     -3.42654092	      6.09229215	      0.10633056	     17.69327706	     -7.09885573	      0.00000000	      0.07001554	     -0.02750161	     -0.82180089	      0.13002586	     -0.03657714	     -0.87316344	      0.11502853	     -0.06686741	     -0.87316344	      0.08002076	     -0.06686741	     -0.71907578	      0.06501643	     -0.05608128	     -0.66771322	      0.04000688	     -0.04259999	     -0.61635067	      0.50011402	     -0.31110371	     -4.57061000	      0.00000000	      0.00000000	     21.31546211	     11.96794017	      0.18358595	     57.14817588	    -21.62763219	      3.87034446	    148.60542328	     74.37392812	      7.40837759	      4.78603799	     -0.55500403	    -24.14434790	     71.21424792	     31.42654606	     61.52470014	     -3.99086024	     -3.19599257
     10.37288136	      0.91033095	     -3.28739134	     93.06317667	      0.23037915	      1.04239911	      0.07635896	     -7.96620010	     -0.18453006	     -9.31591861	      5.43189080	      0.09480438	     22.20117855	     13.39784690	      0.00000000	     -7.28398356	      1.75840550	     -3.84247565	      6.14908774	      0.10732183	     17.52811110	     -7.07094835	      0.00000000	      0.07433718	     -0.02141751	     -0.77855890	      0.13805158	     -0.02848528	     -0.82721883	      0.12212856	     -0.05207453	     -0.82721883	      0.08495996	     -0.05207453	     -0.68123903	      0.06902951	     -0.04367458	     -0.63257910	      0.04247627	     -0.03317572	     -0.58391917	      0.53098305	     -0.24227913	     -4.33011101	      0.00000000	      0.00000000	     21.08416576	     11.60891083	     -0.03318947	     57.48522238	    -21.79704307	      4.03950374	    148.56314279	     73.48468084	      7.95063292	      4.90847766	     -0.49478370	    -24.11719250	     71.51616440	     31.46675769	     61.19868753	     -4.35666082	     -3.54789078
     10.38983051	      0.95343362	     -3.33455920	     93.15338995	      0.23000569	      1.04210311	      0.07624515	     -8.05058088	     -0.08953094	     -8.92045292	      5.15736452	      0.09001299	     22.03132214	     12.76590398	      0.00000000	     -7.20317333	      1.67953485	     -4.40250699	      6.29527392	      0.10987326	     17.48056861	     -6.51297113	      0.00000000	      0.07490819	     -0.01285436	     -0.78396500	      0.13911199	     -0.01709630	     -0.83296281	      0.12306666	     -0.03125409	     -0.83296281	      0.08561257	     -0.03125409	     -0.68596937	      0.06955974	     -0.02621261	     -0.63697156	      0.04280254	     -0.01991140	     -0.58797375	      0.53506169	     -0.14541110	     -4.36017812	      0.00000000	      0.00000000	     20.90407106	     11.47761551	      0.18420119	     57.81523509	    -21.96528938	      4.37454362	    148.38693529	     72.27138429	      8.45891578	      4.48707569	     -0.47837615	    -24.09809186	     71.48569332	     31.68858209	     60.39441875	     -4.54097105	     -2.91442050
     10.40677966	      1.00061997	     -3.33453567	     93.05896588	      0.22979721	      1.04185140	      0.07603502	     -8.08056582	     -0.08387308	     -9.26212999	      5.12278104	      0.08940940	     22.21281363	     13.41067207	      0.00000000	     -7.28799204	      1.79312011	     -2.33314754	      6.16950292	      0.10767814	     16.23830168	    -10.24540625	      0.00000000	      0.07180332	     -0.00159410	     -0.75823942	      0.13334595	     -0.00212015	     -0.80562938	      0.11796568	     -0.00387590	     -0.80562938	      0.08206402	     -0.00387590	     -0.66345949	      0.06667657	     -0.00325069	     -0.61606953	      0.04102842	     -0.00246926	     -0.56867957	      0.51288395	     -0.01803278	     -4.21710019	      0.00000000	      0.00000000	     20.45490060	     11.08458239	      0.14956052	     57.90837161	    -22.09608100	      4.64576500	    148.52902779	     76.62384807	      6.12503800	      3.48624093	     -0.78413182	    -24.00552274	     69.93670096	     31.79019519	     62.64544178	     -4.23869776	     -2.54080317
     10.42372881	      0.95780479	     -3.32984177	     92.89042611	      0.22998814	      1.04182845	      0.07605381	     -8.10829794	     -0.12712790	     -8.65809304	      5.04865008	      0.08811557	     22.29283531	     12.87973932	      0.00000000	     -7.30057948	      1.87229002	     -2.34759202	      6.21300838	      0.10843745	     15.85566100	    -10.84670493	      0.00000000	      0.06691033	     -0.00456143	     -0.71654953	      0.12425917	     -0.00606670	     -0.76133387	      0.10992698	     -0.01109065	     -0.76133387	      0.07647181	     -0.01109065	     -0.62698084	      0.06213293	     -0.00930166	     -0.58219649	      0.03823256	     -0.00706565	     -0.53741215	      0.47793378	     -0.05159976	     -3.98523351	      0.00000000	      0.00000000	     20.03101446	     10.82581118	      0.13149096	     57.86483054	    -22.10525258	      4.59410338	    148.55202667	     77.90580360	      5.51111568	      3.65768715	     -0.72252026	    -24.02580086	     69.55927056	     31.85394807	     63.69347034	     -3.64839412	     -1.88177605
     10.44067797	      0.91588784	     -3.31713597	     92.89440626	      0.23007852	      1.04189826	      0.07607015	     -8.11389520	     -0.16824208	     -8.78757464	      5.07287732	      0.08853841	     22.57047180	     13.06071471	      0.00000000	     -7.30477373	      1.90054625	     -2.44424255	      6.25434240	      0.10915887	     15.69575688	    -10.89951739	      0.00000000	      0.06305854	     -0.00761873	     -0.74123892	      0.11710601	     -0.01013290	     -0.78756635	      0.10359887	     -0.01852417	     -0.78756635	      0.07206960	     -0.01852417	     -0.64858405	      0.05855616	     -0.01553611	     -0.60225662	      0.03603165	     -0.01180141	     -0.55592919	      0.45042084	     -0.08618455	     -4.12254848	      0.00000000	      0.00000000	     19.62927854	     10.57370871	      0.27857832	     57.73432490	    -21.71576748	      4.27616418	    148.53094344	     78.27195808	      5.89471195	      5.03310843	     -0.86191387	    -24.04920408	     69.39965894	     31.89542851	     63.89910905	     -4.10416488	     -2.04006632
